<?xml version="1.0" standalone="no"?>
<!DOCTYPE svg PUBLIC "-//W3C//DTD SVG 20010904//EN"
 "http://www.w3.org/TR/2001/REC-SVG-20010904/DTD/svg10.dtd">
<svg version="1.0" xmlns="http://www.w3.org/2000/svg"
 width="512.000000pt" height="512.000000pt" viewBox="0 0 512.000000 512.000000"
 preserveAspectRatio="xMidYMid meet">
<metadata>
Created by potrace 1.11, written by Peter Selinger 2001-2013
</metadata>
<g transform="translate(0.000000,512.000000) scale(0.100000,-0.100000)"
fill="#000000" stroke="none">
<path d="M2395 4603 c-647 -56 -1224 -410 -1572 -963 -145 -230 -240 -484
-290 -775 -26 -157 -24 -472 6 -639 79 -448 280 -829 597 -1136 176 -170 324
-273 545 -380 516 -249 1095 -268 1639 -55 511 200 950 640 1147 1150 238 612
182 1255 -158 1822 -185 310 -495 595 -829 763 -330 166 -729 244 -1085 213z
m490 -473 c146 -31 276 -77 400 -140 673 -344 1016 -1098 830 -1828 -151 -596
-630 -1051 -1238 -1176 -417 -86 -886 10 -1226 252 -472 335 -725 859 -689
1428 14 219 68 415 170 616 82 162 163 273 298 408 251 251 538 398 889 455
129 21 436 13 566 -15z"/>
<path d="M1700 2560 l0 -1020 255 0 255 0 0 365 0 365 158 0 157 0 34 -62 c19
-35 60 -108 91 -163 31 -55 107 -191 169 -303 l114 -202 278 0 c154 0 279 2
279 5 0 3 -13 26 -28 52 -16 27 -73 125 -127 218 -54 94 -137 238 -185 320
-84 145 -120 210 -120 218 0 2 32 16 70 31 134 53 254 169 299 291 45 120 52
302 16 440 -54 209 -223 374 -440 430 -109 28 -245 34 -762 35 l-513 0 0
-1020z m1074 621 c124 -40 188 -201 141 -359 -20 -65 -54 -106 -119 -140 l-51
-27 -267 -3 -268 -3 0 276 0 277 263 -5 c165 -2 276 -9 301 -16z"/>
</g>
</svg>
